<svg id="SVGRoot" version="1.1" viewBox="0 0 205 205" xmlns="http://www.w3.org/2000/svg" xmlns:xlink="http://www.w3.org/1999/xlink">
 <defs>
  <linearGradient id="linearGradient11940" x1="527.93" x2="560.62" y1="435.11" y2="469.44" gradientUnits="userSpaceOnUse">
   <stop stop-color="#5ec65a" offset="0"/>
   <stop stop-color="#43c142" offset=".19151"/>
   <stop stop-color="#37bc36" offset=".26473"/>
   <stop stop-color="#23b625" offset=".37616"/>
   <stop stop-color="#1db21c" offset=".55508"/>
   <stop stop-color="#007500" offset=".80702"/>
   <stop stop-color="#004004" offset="1"/>
  </linearGradient>
  <filter id="filter12033" x="-.027931" y="-.021039" width="1.0559" height="1.0421" color-interpolation-filters="sRGB">
   <feGaussianBlur stdDeviation="0.2022847759"/>
  </filter>
  <clipPath id="clipPath2123">
   <path d="m525.65 445.41c-8e-3 -6.1801-0.2725-3.3664-8e-3 -6.1801 0.2649-2.8137 3.3854-5.5099 5.2036-5.5062 1.8182 4e-3 6.8695 0.0119 6.8695 0.0119l0.0257 7.7077 0.40843 4.2197c0.0289 2.5234-3.3633 8e-3 -3.664-0.15565z" fill="#fff" fill-rule="evenodd"/>
  </clipPath>
  <mask id="mask2071" maskUnits="userSpaceOnUse">
   <path d="m525.3 448.33c-3e-3 -2.1048-7e-3 -6.4204-0.011-9.1035s2.7413-5.5062 5.5708-5.5062c2.8295 0 9.3308 0.0145 9.3308 0.0145l-0.0468 14.735z" fill="#fff" fill-rule="evenodd"/>
  </mask>
  <filter id="filter12281" x="-.82193" y="-.88177" width="2.6439" height="2.7635" color-interpolation-filters="sRGB">
   <feGaussianBlur stdDeviation="1.90922025"/>
  </filter>
  <filter id="filter2103" x="-.011988" y="-.012012" width="1.024" height="1.024" color-interpolation-filters="sRGB">
   <feGaussianBlur stdDeviation="0.1869516523"/>
  </filter>
 </defs>
 <g transform="matrix(5.4498 0 0 5.4498 -2861.2 -2362.2)" enable-background="new">
  <g>
   <path d="m530.86 471.33c-2.9506 0-5.8228-2.8853-5.8359-5.6785 0.0394-9.0857 7e-3 -17.126 0-26.422 0-2.8853 2.8853-5.7701 5.8359-5.7701 9.2541 0.0199 17 0.0244 26.53 0 2.8853-8e-3 5.6128 2.8848 5.6126 5.7701-2.3e-4 2.8448 6e-3 23.563-0.029 26.422-0.0343 2.793-2.6983 5.6785-5.5836 5.6785-9.1646 0.0106-17.22 1e-3 -26.53 0z" fill="url(#linearGradient11940)"/>
   <path transform="translate(.29688 .46458)" d="m536.19 440.36c-0.45353 7.7e-4 -0.90654 0.20678-1.248 0.62109-0.42638 0.51727-0.42846 0.5462-0.48633 7.0684-0.0372 4.193-0.10744 7.1437-0.21875 9.3125-0.19802 3.8584-0.20216 4.441-0.0332 4.9199 0.36484 1.0341 1.5325 1.4715 2.3984 0.89844 0.60686-0.40161 0.71566-0.68966 0.78906-2.0879 0.19185-3.6547 0.34267-5.6421 0.43554-5.7324 0.0965-0.0939 3.348-0.73732 5.9414-1.1758 1.4852-0.2511 3.6534-0.49093 3.7715-0.41797 0.0509 0.0315 0.0836 1.5187 0.0859 3.9199 4e-3 4.1803 0.0237 4.4309 0.38867 4.9492 0.75543 1.0727 2.2325 0.94927 2.7949-0.23438 0.20115-0.42333 0.20106-0.42364 0.14453-4.4453-0.0366-2.6049-0.0213-4.9018 0.043-6.5195 0.0546-1.3737 0.13786-3.5456 0.18554-4.8262 0.0477-1.2806 0.1477-2.7623 0.22071-3.293 0.25645-1.8642-0.2865-2.8893-1.5391-2.9082-1.4456-0.0219-2.0967 2.0219-2.2031 6.9219-0.0293 1.3504-0.0864 2.4895-0.12695 2.5312-0.0405 0.0417-0.63681 0.12429-1.3262 0.18555-1.437 0.12769-2.4697 0.29214-5.6133 0.89062-2.8872 0.54968-2.7638 0.53057-2.8262 0.42969-0.0294-0.0476-8e-3 -2.16 0.0469-4.6934 0.11053-5.0692 0.10822-5.1087-0.37696-5.6973-0.34055-0.41316-0.79452-0.61796-1.248-0.61719z" fill-rule="evenodd" filter="url(#filter12033)" stroke="#000" stroke-linecap="round" stroke-linejoin="round" stroke-width=".04445" style="paint-order:stroke fill markers"/>
   <path d="m536.19 440.36c-0.45353 7.7e-4 -0.90699 0.20839-1.2485 0.6227-0.42638 0.51727-0.42841 0.54511-0.48628 7.0673-0.0372 4.193-0.10625 7.1448-0.21756 9.3136-0.19802 3.8584-0.20203 4.4407-0.0331 4.9196 0.36484 1.0341 1.5314 1.4712 2.3973 0.89814 0.60687-0.40161 0.71622-0.69001 0.78962-2.0882 0.19184-3.6547 0.34275-5.6411 0.43563-5.7314 0.0965-0.0939 3.3484-0.73769 5.9418-1.1762 1.4852-0.2511 3.6523-0.49154 3.7703-0.41858 0.0509 0.0315 0.0835 1.518 0.0858 3.9191 4e-3 4.1803 0.0236 4.4323 0.38861 4.9506 0.75542 1.0727 2.2338 0.94801 2.7962-0.23564 0.20115-0.42334 0.20122-0.42354 0.14469-4.4452-0.0366-2.6049-0.0219-4.9012 0.0424-6.519 0.0546-1.3737 0.13835-3.5455 0.18603-4.8261 0.0477-1.2806 0.0626-2.4068 0.13566-2.9375 0.0217-0.15786 0.10513-0.80763 0.11544-0.95336 0.11142-1.5752-0.4239-2.2935-1.5704-2.3108-1.4456-0.0219-2.0955 2.0216-2.2019 6.9215-0.0293 1.3504-0.0866 2.4894-0.12712 2.5311-0.0405 0.0417-0.63769 0.12581-1.327 0.18707-1.4371 0.12769-2.4701 0.29138-5.6136 0.88987-2.8872 0.54967-2.7638 0.53082-2.8262 0.42994-0.0294-0.0476-8e-3 -2.1593 0.047-4.6927 0.11053-5.0692 0.10794-5.1087-0.37724-5.6973-0.34056-0.41315-0.79394-0.61934-1.2475-0.61857z" fill="#fff" fill-rule="evenodd" style="paint-order:stroke fill markers"/>
  </g>
  <g clip-path="url(#clipPath2123)">
   <g mask="url(#mask2071)">
    <path d="m531.27 439.27c-0.90814 0.90813-3.2699 1.5391-4.2398 0.56922-0.96992-0.96992-0.22746-2.659 0.68067-3.5671 0.90814-0.90814 2.894-1.6578 3.8639-0.68791 0.96993 0.96992 0.60343 2.7777-0.3047 3.6858z" fill="#fff" fill-rule="evenodd" filter="url(#filter12281)" opacity=".89"/>
   </g>
  </g>
  <path transform="matrix(.98069 0 0 .98114 10.497 8.5318)" d="m530.67 471.07c-2.5114 0-5.3894-2.8305-5.3895-5.1816 0.0389-8.9605 7e-3 -17.744 1e-5 -26.911 2e-5 -2.4019 2.8795-5.2561 5.1093-5.2561 9.1269 0.0196 17.868 0.0241 27.267 0 2.3789-1e-5 5.0518 2.7037 5.0518 5.2561-1e-5 2.8056-2e-5 24.08 0 26.93 2e-5 2.3267-2.6878 5.1628-5.0518 5.1628-5.019 9e-3 -17.805 9.9e-4 -26.987 0z" fill="none" filter="url(#filter2103)" stroke="#000" stroke-width=".92974"/>
  <path d="m530.87 471.07c-2.8052 4e-5 -5.5902-2.7567-5.5902-5.4506 0.0389-8.9605 0.0114-17.222 4e-3 -26.389-4e-3 -2.7959 2.8351-5.5062 5.5532-5.5062 9.1302 0.0196 17.143 0.0241 26.546 1e-5 2.7951-1e-5 5.3557 2.826 5.3554 5.5062-3e-4 2.8127-0.0282 23.626-0.0282 26.422 0 2.2828-2.2919 5.4176-5.3139 5.4176-4.8777-0.0152-17.341 9.8e-4 -26.526 0z" fill="none" stroke="#000" stroke-width=".52917"/>
 </g>
</svg>
