<svg id="SVGRoot" class="Cewka" name="Cewka" width="206px" height="206px" version="1.1" viewBox="0 0 206 206" xmlns="http://www.w3.org/2000/svg">
 <g transform="translate(1.3911 6.8479)">
  <g transform="matrix(3.7795,0,0,3.7795,10.171,-6.7758)">
   <g transform="translate(-1.0884,-121.69)">
    <g transform="translate(1.6608,-59.209)">
     <g transform="translate(-.6443 -59.335)">
      <g transform="translate(-1396.8,269.89)">
       <g transform="translate(-57.972 -.024822)">
        <g transform="translate(1657.6 73.867)" style="fill:#db3b3b">
         <g transform="translate(-203.03,-103.33)" style="fill:#db3b3b">
          <flowRoot transform="matrix(.26458 0 0 .26458 -2.875 1.091)" font-size="40px" letter-spacing="0px" word-spacing="0px" style="fill:#db3b3b;font-family:sans-serif;font-size:40px;letter-spacing:0px;line-height:1.25;word-spacing:0px" xml:space="preserve"><flowRegion style="fill:#db3b3b"><rect x="-85.582" y="-60.812" width="342.33" height="293.65" style="fill:#db3b3b"/></flowRegion><flowPara/></flowRoot>
          <g transform="translate(-1144.8 309.94)" style="fill:#db3b3b">
           <flowRoot transform="matrix(.26458 0 0 .26458 1036.5 -317.79)" font-size="40px" letter-spacing="0px" word-spacing="0px" style="fill:#db3b3b;font-family:sans-serif;font-size:40px;letter-spacing:0px;line-height:1.25;word-spacing:0px" xml:space="preserve"><flowRegion style="fill:#db3b3b"><rect x="-105.21" y="-13.703" width="562.17" height="513.49" style="fill:#db3b3b"/></flowRegion><flowPara/></flowRoot>
           <g transform="translate(-66.134 .039287)" style="fill:#db3b3b">
            <g transform="matrix(.26459 0 0 .26459 1207.6 -308.71)">
             <g transform="matrix(3.7795,0,0,3.7795,10.171,-6.7758)">
              <g transform="translate(.5724 -180.9)">
               <g transform="translate(-.11514 -59.639)">
                <g transform="translate(-1396.8,269.89)">
                 <g transform="translate(-57.972 -.024822)">
                  <g transform="translate(1663 71.099)">
                   <g transform="translate(-208.46 -100.26)">
                    <flowRoot transform="matrix(.26458 0 0 .26458 -2.875 1.091)" font-size="40px" letter-spacing="0px" word-spacing="0px" style="fill:#000000;font-family:sans-serif;font-size:40px;letter-spacing:0px;line-height:1.25;word-spacing:0px" xml:space="preserve"><flowRegion><rect x="-85.582" y="-60.812" width="342.33" height="293.65"/></flowRegion><flowPara/></flowRoot>
                    <g transform="translate(-1039.4,318.88)">
                     <flowRoot transform="matrix(.26458 0 0 .26458 1036.5 -317.79)" font-size="40px" letter-spacing="0px" word-spacing="0px" style="fill:#000000;font-family:sans-serif;font-size:40px;letter-spacing:0px;line-height:1.25;word-spacing:0px" xml:space="preserve"><flowRegion><rect x="-105.21" y="-13.703" width="562.17" height="513.49"/></flowRegion><flowPara/></flowRoot>
                     <g transform="translate(-186.81 -6.3046)">
                      <flowRoot transform="matrix(.26458 0 0 .26458 1168.8 -317.87)" font-size="40px" letter-spacing="0px" word-spacing="0px" style="fill:#000000;font-family:sans-serif;font-size:40px;letter-spacing:0px;line-height:1.25;word-spacing:0px" xml:space="preserve"><flowRegion><rect x="-114.63" y="-91.434" width="675.23" height="522.91"/></flowRegion><flowPara/></flowRoot>
                      <g transform="translate(-66.2 -.040316)">
                       <g transform="translate(-65.918 -.60254)">
                        <g transform="translate(-138.35 -1.664)">
                         <flowRoot font-size="40px" letter-spacing="0px" word-spacing="0px" style="fill:#000000;font-family:sans-serif;font-size:40px;letter-spacing:0px;line-height:1.25;word-spacing:0px" xml:space="preserve"><flowRegion><rect x="-24.34" y="-19.695" width="252.04" height="245.75"/></flowRegion><flowPara/></flowRoot>
                         <g transform="translate(-69.207 .046241)">
                          <flowRoot font-size="40px" letter-spacing="0px" word-spacing="0px" style="fill:#000000;font-family:sans-serif;font-size:40px;letter-spacing:0px;line-height:1.25;word-spacing:0px" xml:space="preserve"><flowRegion><rect x="-65.168" y="-26.762" width="382.37" height="335.26"/></flowRegion><flowPara/></flowRoot>
                          <g transform="translate(-63.347 .4912)">
                           <g transform="translate(529.82 -.18087)">
                            <rect x="1098" y="-309.59" width="52.917" height="52.917" style="fill:#db3b3b;paint-order:fill markers stroke;stroke-linecap:round;stroke-width:.5;stroke:#000"/>
                            <g transform="matrix(.74869 0 0 .86064 1101 -315.6)" style="fill:#fff">
                             <g transform="translate(0 -988.36)" display="none" style="display:none;fill:#fff">
                              <circle cx="32" cy="1020.4" r="29.257" style="fill:#fff;stroke-linecap:square;stroke-linejoin:round;stroke-miterlimit:11.2;stroke-width:5.4857;stroke:#000"/>
                             </g>
                             <g style="fill:#fff">
                              <path d="m17.314 37.547h5.5723" style="fill:#fff"/>
                              <g transform="matrix(.96822 0 0 1.0013 .99471 2.4295)" style="fill:#fff">
                               <g transform="matrix(.71637 0 0 .92011 7.6452 2.1498)" style="fill:#fff;stroke-width:1.2317;stroke:#000">
                                <path d="m18.411 19.148a9.0574 13.909 0 0 0-9.0566 13.908 9.0574 13.909 0 0 0 0.023437 0.94336h3.293a6 9.4114 0 0 1-0.08594-0.58984 6 9.4114 0 0 1-0.07227-0.93359 6 9.4114 0 0 1-0.01367-0.66602 6 9.4114 0 0 1 0.0293-0.93945 6 9.4114 0 0 1 0.08984-0.92969 6 9.4114 0 0 1 0.14844-0.91211 6 9.4114 0 0 1 0.20508-0.88281 6 9.4114 0 0 1 0.26172-0.84766 6 9.4114 0 0 1 0.3125-0.80273 6 9.4114 0 0 1 0.36328-0.74805 6 9.4114 0 0 1 0.4082-0.6875 6 9.4114 0 0 1 0.45117-0.62109 6 9.4114 0 0 1 0.48828-0.54688 6 9.4114 0 0 1 0.51953-0.46875 6 9.4114 0 0 1 0.54883-0.38477 6 9.4114 0 0 1 0.56836-0.29687 6 9.4114 0 0 1 0.58594-0.20508 6 9.4114 0 0 1 0.59375-0.11328 6 9.4114 0 0 1 0.42578-0.02344 6 9.4114 0 0 1 0.59766 0.04687 6 9.4114 0 0 1 0.59375 0.14062 6 9.4114 0 0 1 0.58203 0.23242 6 9.4114 0 0 1 0.5625 0.32227 6 9.4114 0 0 1 0.53906 0.41016 6 9.4114 0 0 1 0.51172 0.49024 6 9.4114 0 0 1 0.47852 0.57031 6 9.4114 0 0 1 0.4375 0.64062 6 9.4114 0 0 1 0.39648 0.70703 6 9.4114 0 0 1 0.34961 0.76562 6 9.4114 0 0 1 0.29688 0.81641 6 9.4114 0 0 1 0.24609 0.85742 6 9.4114 0 0 1 0.18945 0.89258 6 9.4114 0 0 1 0.13086 0.91797 6 9.4114 0 0 1 0.07227 0.93359 6 9.4114 0 0 1 0.01563 0.66602 6 9.4114 0 0 1-0.03125 0.93945 6 9.4114 0 0 1-0.08984 0.93164 6 9.4114 0 0 1-0.05273 0.31836h3.1133a9.0574 13.909 0 0 0 0.03125-0.94336 9.0574 13.909 0 0 0-9.0586-13.908z" style="fill:#fff;stroke-linejoin:round;stroke-width:1.2317;stroke:#000"/>
                                <path d="m33.923 19.148a9.0574 13.909 0 0 0-9.0566 13.908 9.0574 13.909 0 0 0 0.02344 0.94336h3.293a6 9.4114 0 0 1-0.08594-0.58984 6 9.4114 0 0 1-0.07227-0.93359 6 9.4114 0 0 1-0.01367-0.66602 6 9.4114 0 0 1 0.0293-0.93945 6 9.4114 0 0 1 0.08984-0.92969 6 9.4114 0 0 1 0.14844-0.91211 6 9.4114 0 0 1 0.20508-0.88281 6 9.4114 0 0 1 0.26172-0.84766 6 9.4114 0 0 1 0.3125-0.80273 6 9.4114 0 0 1 0.36328-0.74805 6 9.4114 0 0 1 0.4082-0.6875 6 9.4114 0 0 1 0.45117-0.62109 6 9.4114 0 0 1 0.48828-0.54688 6 9.4114 0 0 1 0.51953-0.46875 6 9.4114 0 0 1 0.54883-0.38477 6 9.4114 0 0 1 0.56836-0.29687 6 9.4114 0 0 1 0.58594-0.20508 6 9.4114 0 0 1 0.59375-0.11328 6 9.4114 0 0 1 0.42578-0.02344 6 9.4114 0 0 1 0.59766 0.04687 6 9.4114 0 0 1 0.59375 0.14062 6 9.4114 0 0 1 0.58203 0.23242 6 9.4114 0 0 1 0.5625 0.32227 6 9.4114 0 0 1 0.53906 0.41016 6 9.4114 0 0 1 0.51172 0.49024 6 9.4114 0 0 1 0.47852 0.57031 6 9.4114 0 0 1 0.4375 0.64062 6 9.4114 0 0 1 0.39648 0.70703 6 9.4114 0 0 1 0.34961 0.76562 6 9.4114 0 0 1 0.29688 0.81641 6 9.4114 0 0 1 0.24609 0.85742 6 9.4114 0 0 1 0.18945 0.89258 6 9.4114 0 0 1 0.13086 0.91797 6 9.4114 0 0 1 0.07227 0.93359 6 9.4114 0 0 1 0.01563 0.66602 6 9.4114 0 0 1-0.03125 0.93946 6 9.4114 0 0 1-0.08984 0.93164 6 9.4114 0 0 1-0.05273 0.31836h3.1133a9.0574 13.909 0 0 0 0.03124-0.94336 9.0574 13.909 0 0 0-9.0586-13.908z" style="fill:#fff;stroke-linejoin:round;stroke-width:1.2317;stroke:#000"/>
                                <path d="m49.45 19.148a9.0574 13.909 0 0 0-9.0566 13.908 9.0574 13.909 0 0 0 0.02344 0.94336h3.293a6 9.4114 0 0 1-0.08594-0.58984 6 9.4114 0 0 1-0.07227-0.93359 6 9.4114 0 0 1-0.01367-0.66602 6 9.4114 0 0 1 0.0293-0.93945 6 9.4114 0 0 1 0.08984-0.92969 6 9.4114 0 0 1 0.14844-0.91211 6 9.4114 0 0 1 0.20508-0.88281 6 9.4114 0 0 1 0.26172-0.84766 6 9.4114 0 0 1 0.3125-0.80273 6 9.4114 0 0 1 0.36328-0.74805 6 9.4114 0 0 1 0.4082-0.6875 6 9.4114 0 0 1 0.45117-0.62109 6 9.4114 0 0 1 0.48828-0.54688 6 9.4114 0 0 1 0.51953-0.46875 6 9.4114 0 0 1 0.54883-0.38477 6 9.4114 0 0 1 0.56836-0.29687 6 9.4114 0 0 1 0.58594-0.20508 6 9.4114 0 0 1 0.59375-0.11328 6 9.4114 0 0 1 0.42578-0.02344 6 9.4114 0 0 1 0.59766 0.04687 6 9.4114 0 0 1 0.59375 0.14062 6 9.4114 0 0 1 0.58203 0.23242 6 9.4114 0 0 1 0.5625 0.32227 6 9.4114 0 0 1 0.53906 0.41016 6 9.4114 0 0 1 0.51172 0.49024 6 9.4114 0 0 1 0.47852 0.57031 6 9.4114 0 0 1 0.4375 0.64062 6 9.4114 0 0 1 0.39648 0.70703 6 9.4114 0 0 1 0.34961 0.76562 6 9.4114 0 0 1 0.29688 0.81641 6 9.4114 0 0 1 0.24609 0.85742 6 9.4114 0 0 1 0.18945 0.89258 6 9.4114 0 0 1 0.13086 0.91797 6 9.4114 0 0 1 0.07227 0.93359 6 9.4114 0 0 1 0.01563 0.66602 6 9.4114 0 0 1-0.03125 0.93946 6 9.4114 0 0 1-0.08984 0.93164 6 9.4114 0 0 1-0.05273 0.31836h3.1133a9.0574 13.909 0 0 0 0.03124-0.94336 9.0574 13.909 0 0 0-9.0586-13.908z" style="fill:#fff;stroke-linejoin:round;stroke-width:1.2317;stroke:#000"/>
                               </g>
                               <path d="m48.879 32.249h7.1282v0" style="fill-rule:evenodd;fill:#fff;stroke-linecap:round;stroke-width:3.5026;stroke:#000"/>
                               <path d="m7.9786 32.249h7.1282v0" style="fill-rule:evenodd;fill:#fff;stroke-linecap:round;stroke-width:3.5026;stroke:#000"/>
                              </g>
                             </g>
                            </g>
                            <text x="1115.9927" y="-262.2645" style="fill:#000000;font-family:sans-serif;font-size:10.583px;letter-spacing:0px;line-height:1.25;stroke-width:.26459;word-spacing:0px" xml:space="preserve"><tspan x="1115.9927" y="-262.2645" style="font-size:5.6445px;stroke-width:.26459"><tspan class="iTxt" x="1115.9927" y="-262.2645" style="fill:#ffffff;font-size:5.6445px;stroke-width:.26459">Cewka</tspan></tspan></text>
                           </g>
                          </g>
                         </g>
                        </g>
                       </g>
                      </g>
                     </g>
                    </g>
                   </g>
                  </g>
                 </g>
                </g>
               </g>
              </g>
             </g>
             <text x="112.31046" y="151.41133" style="fill:#000000;font-family:sans-serif;font-size:40px;letter-spacing:0px;line-height:1.25;word-spacing:0px" xml:space="preserve"><tspan x="112.31046" y="187.90454"/></text>
             <flowRoot transform="translate(2.0683 -5.5027)" style="fill:#000000;font-family:sans-serif;font-size:40px;letter-spacing:0px;line-height:1.25;word-spacing:0px" xml:space="preserve"><flowRegion><rect x="-719.39" y="-8.0469" width="328.31" height="82.883"/></flowRegion><flowPara/></flowRoot>
             <flowRoot style="fill:black;font-family:sans-serif;font-size:40px;letter-spacing:0px;line-height:1.25;word-spacing:0px" xml:space="preserve"><flowRegion><rect x="-757.21" y="21.727" width="159.33" height="62.766"/></flowRegion><flowPara/></flowRoot>
             <flowRoot style="fill:#ececec;font-family:sans-serif;font-size:40px;letter-spacing:0px;line-height:1.25;word-spacing:0px" xml:space="preserve"><flowRegion style="fill:#ececec"><rect x="-807.1" y="-16.898" width="280.03" height="115.88" style="fill:#ececec"/></flowRegion><flowPara/></flowRoot>
             <text x="75.294853" y="163.39673" style="fill:#000000;font-family:sans-serif;font-size:40px;letter-spacing:0px;line-height:1.25;word-spacing:0px" xml:space="preserve"><tspan x="134.21153" y="163.39673"><tspan x="134.21153" y="163.39673" style="font-size:21.333px"> </tspan></tspan></text>
             <text x="-848.48639" y="11.395708" style="fill:#000000;font-family:sans-serif;font-size:40px;letter-spacing:0px;line-height:1.25;word-spacing:0px" xml:space="preserve"><tspan x="-848.48639" y="47.88892"/><tspan x="-848.48639" y="97.888924"/></text>
             <text x="58.279224" y="187.90456" style="fill:#ffffff;font-family:sans-serif;font-size:40px;letter-spacing:0px;line-height:1.25;word-spacing:0px" xml:space="preserve"><tspan x="58.279224" y="224.39777" style="font-size:21.333px"/></text>
             <flowRoot style="fill:black;font-family:sans-serif;font-size:40px;letter-spacing:0px;line-height:1.25;word-spacing:0px" xml:space="preserve"><flowRegion><rect x="20.117" y="137.6" width="159.33" height="53.914"/></flowRegion><flowPara/></flowRoot>
            </g>
           </g>
          </g>
         </g>
        </g>
        <path transform="matrix(.26459 0 0 .26459 1451.8 -29.65)" d="m5.6328 104.69v-98.574h197.15v89.723c0 59.279 0.27304 89.723 0.80469 89.723 0.44258 0 0.80469 0.54316 0.80469 1.207s-0.36211 1.207-0.80469 1.207c-0.47999 0-0.80469 3.0846-0.80469 7.6445v7.6445h-197.15z" style="fill-opacity:0;stroke-width:.80469"/>
        <path transform="matrix(.26459 0 0 .26459 1451.8 -29.65)" d="m5.6328 104.69v-98.574h197.15v89.723c0 59.279 0.27304 89.723 0.80469 89.723 0.44258 0 0.80469 0.54316 0.80469 1.207s-0.36211 1.207-0.80469 1.207c-0.47999 0-0.80469 3.0846-0.80469 7.6445v7.6445h-197.15z" style="fill-opacity:0;stroke-width:.80469"/>
        <path transform="matrix(.26459 0 0 .26459 1451.8 -29.65)" d="m5.6328 104.69v-98.574h197.15v89.723c0 59.279 0.27304 89.723 0.80469 89.723 0.44258 0 0.80469 0.54316 0.80469 1.207s-0.36211 1.207-0.80469 1.207c-0.47999 0-0.80469 3.0846-0.80469 7.6445v7.6445h-197.15z" style="fill-opacity:0;stroke-width:.80469"/>
        <path transform="matrix(.26459 0 0 .26459 1451.8 -29.65)" d="m5.6328 104.69v-98.574h197.15v89.723c0 59.279 0.27304 89.723 0.80469 89.723 0.44258 0 0.80469 0.54316 0.80469 1.207s-0.36211 1.207-0.80469 1.207c-0.47999 0-0.80469 3.0846-0.80469 7.6445v7.6445h-197.15z" style="fill-opacity:0;stroke-width:.80469"/>
        <path transform="matrix(.26459 0 0 .26459 1451.8 -29.65)" d="m5.6328 104.69v-98.574h197.15v89.723c0 59.279 0.27304 89.723 0.80469 89.723 0.44258 0 0.80469 0.54316 0.80469 1.207s-0.36211 1.207-0.80469 1.207c-0.47999 0-0.80469 3.0846-0.80469 7.6445v7.6445h-197.15z" style="fill-opacity:0;stroke-width:.80469"/>
        <path transform="matrix(.26459 0 0 .26459 1451.8 -29.65)" d="m5.6328 104.69v-98.574h197.15v89.723c0 59.279 0.27304 89.723 0.80469 89.723 0.44258 0 0.80469 0.54316 0.80469 1.207s-0.36211 1.207-0.80469 1.207c-0.47999 0-0.80469 3.0846-0.80469 7.6445v7.6445h-197.15z" style="fill-opacity:0;stroke-width:.80469"/>
        <path transform="matrix(.26459 0 0 .26459 1451.8 -29.65)" d="m5.6328 104.69v-98.574h197.15v89.723c0 59.279 0.27304 89.723 0.80469 89.723 0.44258 0 0.80469 0.54316 0.80469 1.207s-0.36211 1.207-0.80469 1.207c-0.47999 0-0.80469 3.0846-0.80469 7.6445v7.6445h-197.15z" style="fill-opacity:0;stroke-width:.80469"/>
        <path transform="matrix(.26459 0 0 .26459 1451.8 -29.65)" d="m5.6328 104.69v-98.574h197.15v89.723c0 59.279 0.27304 89.723 0.80469 89.723 0.44258 0 0.80469 0.54316 0.80469 1.207s-0.36211 1.207-0.80469 1.207c-0.47999 0-0.80469 3.0846-0.80469 7.6445v7.6445h-197.15z" style="fill-opacity:0;stroke-width:.80469"/>
        <path transform="matrix(.26459 0 0 .26459 1451.8 -29.65)" d="m5.6328 104.69v-98.574h197.15v89.723c0 59.279 0.27304 89.723 0.80469 89.723 0.44258 0 0.80469 0.54316 0.80469 1.207s-0.36211 1.207-0.80469 1.207c-0.47999 0-0.80469 3.0846-0.80469 7.6445v7.6445h-197.15z" style="fill-opacity:0;stroke-width:.80469"/>
        <path transform="matrix(.26459 0 0 .26459 1451.8 -29.65)" d="m5.6328 104.69v-98.574h197.15v89.723c0 59.279 0.27304 89.723 0.80469 89.723 0.44258 0 0.80469 0.54316 0.80469 1.207s-0.36211 1.207-0.80469 1.207c-0.47999 0-0.80469 3.0846-0.80469 7.6445v7.6445h-197.15z" style="fill-opacity:0;stroke-width:.80469"/>
        <path transform="matrix(.26459 0 0 .26459 1451.8 -29.65)" d="m5.6328 104.69v-98.574h197.15v89.723c0 59.279 0.27304 89.723 0.80469 89.723 0.44258 0 0.80469 0.54316 0.80469 1.207s-0.36211 1.207-0.80469 1.207c-0.47999 0-0.80469 3.0846-0.80469 7.6445v7.6445h-197.15z" style="fill-opacity:0;stroke-width:.80469"/>
        <path transform="matrix(.26459 0 0 .26459 1451.8 -29.65)" d="m5.6328 104.69v-98.574h197.15v89.723c0 59.279 0.27304 89.723 0.80469 89.723 0.44258 0 0.80469 0.54316 0.80469 1.207s-0.36211 1.207-0.80469 1.207c-0.47999 0-0.80469 3.0846-0.80469 7.6445v7.6445h-197.15z" style="fill-opacity:0;stroke-width:.80469"/>
        <path transform="matrix(.26459 0 0 .26459 1451.8 -29.65)" d="m5.6328 104.69v-98.574h197.15v89.723c0 59.279 0.27304 89.723 0.80469 89.723 0.44258 0 0.80469 0.54316 0.80469 1.207s-0.36211 1.207-0.80469 1.207c-0.47999 0-0.80469 3.0846-0.80469 7.6445v7.6445h-197.15z" style="fill-opacity:0;stroke-width:.80469"/>
       </g>
      </g>
     </g>
    </g>
   </g>
  </g>
 </g>
</svg>
