<?xml version="1.0" encoding="UTF-8" standalone="no"?>
<svg
   xmlns:dc="http://purl.org/dc/elements/1.1/"
   xmlns:cc="http://creativecommons.org/ns#"
   xmlns:rdf="http://www.w3.org/1999/02/22-rdf-syntax-ns#"
   xmlns:svg="http://www.w3.org/2000/svg"
   xmlns="http://www.w3.org/2000/svg"
   xmlns:sodipodi="http://sodipodi.sourceforge.net/DTD/sodipodi-0.dtd"
   xmlns:inkscape="http://www.inkscape.org/namespaces/inkscape"
   id="SVGRoot"
   width="205px"
   height="205px"
   version="1.1"
   viewBox="0 0 205 205"
   sodipodi:docname="NowyDokumentUzupełniony.svg"
   inkscape:version="0.92.4 (5da689c313, 2019-01-14)">
  <metadata
     id="metadata105">
    <rdf:RDF>
      <cc:Work
         rdf:about="">
        <dc:format>image/svg+xml</dc:format>
        <dc:type
           rdf:resource="http://purl.org/dc/dcmitype/StillImage" />
        <dc:title></dc:title>
      </cc:Work>
    </rdf:RDF>
  </metadata>
  <defs
     id="defs103" />
  <sodipodi:namedview
     pagecolor="#ffffff"
     bordercolor="#666666"
     borderopacity="1"
     objecttolerance="10"
     gridtolerance="10"
     guidetolerance="10"
     inkscape:pageopacity="0"
     inkscape:pageshadow="2"
     inkscape:window-width="1366"
     inkscape:window-height="705"
     id="namedview101"
     showgrid="false"
     inkscape:zoom="1.1512195"
     inkscape:cx="102.5"
     inkscape:cy="81.696308"
     inkscape:window-x="-8"
     inkscape:window-y="-8"
     inkscape:window-maximized="1"
     inkscape:current-layer="SVGRoot" />
  <rect
     x="3.3008"
     y="2.5"
     width="200"
     height="200"
     style="fill:#db3b3b;paint-order:fill markers stroke;stroke-linecap:round;stroke-width:1.8898;stroke:#000"
     id="rect2" />
  <g
     transform="matrix(1.9231 0 0 1.9231 50.098 23.66)"
     style="fill:#fff"
     id="g70">
    <g
       style="fill:#fff"
       id="g68">
      <g
         style="fill:#fff"
         id="g6">
        <path
           d="m7 50c-2.7568 0-5-2.2432-5-5v-23h10v23c0 2.7568-2.2431 5-5 5zm-3-26v21c0 1.6543 1.3457 3 3 3s3-1.3457 3-3v-21z"
           style="fill:#fff"
           id="path4" />
      </g>
      <g
         style="fill:#fff"
         id="g10">
        <path
           d="m45 50h-38v-2h38c1.6543 0 3-1.3457 3-3v-41h-36v18.999h-2v-20.999h40v43c1e-6 2.7568-2.2432 5-5 5z"
           style="fill:#fff"
           id="path8" />
      </g>
      <g
         style="fill:#fff"
         id="g14">
        <path
           d="m46 16h-32v-10h32v10zm-30-2h28v-6h-28z"
           style="fill:#fff"
           id="path12" />
      </g>
      <g
         style="fill:#fff"
         id="g18">
        <rect
           x="6"
           y="23"
           width="2"
           height="22"
           style="fill:#fff"
           id="rect16" />
      </g>
      <g
         style="fill:#fff"
         id="g22">
        <rect
           x="14"
           y="19"
           width="14"
           height="2"
           style="fill:#fff"
           id="rect20" />
      </g>
      <g
         style="fill:#fff"
         id="g26">
        <rect
           x="32"
           y="19"
           width="14"
           height="2"
           style="fill:#fff"
           id="rect24" />
      </g>
      <g
         style="fill:#fff"
         id="g30">
        <rect
           x="14"
           y="24"
           width="14"
           height="2"
           style="fill:#fff"
           id="rect28" />
      </g>
      <g
         style="fill:#fff"
         id="g34">
        <rect
           x="32"
           y="24"
           width="14"
           height="2"
           style="fill:#fff"
           id="rect32" />
      </g>
      <g
         style="fill:#fff"
         id="g38">
        <rect
           x="14"
           y="29"
           width="14"
           height="2"
           style="fill:#fff"
           id="rect36" />
      </g>
      <g
         style="fill:#fff"
         id="g42">
        <rect
           x="32"
           y="29"
           width="14"
           height="2"
           style="fill:#fff"
           id="rect40" />
      </g>
      <g
         style="fill:#fff"
         id="g46">
        <rect
           x="14"
           y="34"
           width="14"
           height="2"
           style="fill:#fff"
           id="rect44" />
      </g>
      <g
         style="fill:#fff"
         id="g50">
        <rect
           x="32"
           y="34"
           width="14"
           height="2"
           style="fill:#fff"
           id="rect48" />
      </g>
      <g
         style="fill:#fff"
         id="g54">
        <rect
           x="14"
           y="39"
           width="14"
           height="2"
           style="fill:#fff"
           id="rect52" />
      </g>
      <g
         style="fill:#fff"
         id="g58">
        <rect
           x="32"
           y="39"
           width="14"
           height="2"
           style="fill:#fff"
           id="rect56" />
      </g>
      <g
         style="fill:#fff"
         id="g62">
        <rect
           x="14"
           y="44"
           width="14"
           height="2"
           style="fill:#fff"
           id="rect60" />
      </g>
      <g
         style="fill:#fff"
         id="g66">
        <rect
           x="32"
           y="44"
           width="14"
           height="2"
           style="fill:#fff"
           id="rect64" />
      </g>
    </g>
  </g>
  <text
     x="73.671875"
     y="154.20805"
     style="fill:#000000;font-family:sans-serif;font-size:40px;letter-spacing:0px;line-height:1.25;word-spacing:0px"
     xml:space="preserve"
     id="text76"><tspan
       x="73.671875"
       y="154.20805"
       id="tspan74"><tspan
         x="73.671875"
         y="154.20805"
         style="fill:#ffffff;font-size:21.333px"
         id="tspan72">Nowy</tspan></tspan></text>
  <flowRoot
     style="fill:#000000;font-family:sans-serif;font-size:40px;letter-spacing:0px;line-height:1.25;word-spacing:0px"
     xml:space="preserve"
     id="flowRoot84"><flowRegion
       id="flowRegion80"><rect
         x="-306.7"
         y="16.016"
         width="230.62"
         height="40.039"
         id="rect78" /></flowRegion><flowPara
       id="flowPara82">Dokument</flowPara></flowRoot>  <flowRoot
     style="fill:black;font-family:sans-serif;font-size:40px;letter-spacing:0px;line-height:1.25;word-spacing:0px"
     xml:space="preserve"
     id="flowRoot92"><flowRegion
       id="flowRegion88"><rect
         x="-308.3"
         y="-28.027"
         width="136.13"
         height="70.469"
         id="rect86" /></flowRegion><flowPara
       id="flowPara90" /></flowRoot>  <text
     x="48.445312"
     y="187.04008"
     style="fill:#000000;font-family:sans-serif;font-size:40px;letter-spacing:0px;line-height:1.25;word-spacing:0px"
     xml:space="preserve"
     id="text98"><tspan
       x="48.445312"
       y="187.04008"
       id="tspan96"><tspan
         x="48.445312"
         y="187.04008"
         style="fill:#ffffff;font-size:21.333px"
         id="tspan94">Dokument</tspan></tspan></text>
  <g
     id="g3824"
     transform="matrix(0.11029491,0,0,0.11253755,132.94631,86.908177)">
    <path
       id="path3810"
       d="M 256,0 C 114.83594,0 0,114.83594 0,256 0,397.16406 114.83594,512 256,512 397.16406,512 512,397.16406 512,256 512,114.83594 397.16406,0 256,0 Z m 0,0"
       inkscape:connector-curvature="0"
       style="fill:#2196f3" />
    <path
       id="path3812"
       d="M 368,277.33203 H 277.33203 V 368 c 0,11.77734 -9.55469,21.33203 -21.33203,21.33203 -11.77734,0 -21.33203,-9.55469 -21.33203,-21.33203 V 277.33203 H 144 c -11.77734,0 -21.33203,-9.55469 -21.33203,-21.33203 0,-11.77734 9.55469,-21.33203 21.33203,-21.33203 h 90.66797 V 144 c 0,-11.77734 9.55469,-21.33203 21.33203,-21.33203 11.77734,0 21.33203,9.55469 21.33203,21.33203 v 90.66797 H 368 c 11.77734,0 21.33203,9.55469 21.33203,21.33203 0,11.77734 -9.55469,21.33203 -21.33203,21.33203 z m 0,0"
       inkscape:connector-curvature="0"
       style="fill:#ff0000" />
  </g>
</svg>
