<svg id="SVGRoot" class="SRACzastosowanie" name="SRAC zastosowanie" version="1.1" viewBox="0 0 206 206" xmlns="http://www.w3.org/2000/svg">
 <g transform="translate(1.3911 6.8479)">
  <g transform="matrix(3.7795,0,0,3.7795,10.171,-6.7758)">
   <g transform="translate(-1.0884,-121.69)">
    <g transform="translate(1.6608,-59.209)">
     <g transform="translate(-.6443 -59.335)">
      <g transform="translate(-1396.8,269.89)">
       <g transform="translate(-57.972 -.024822)">
        <g transform="translate(1657.6 73.867)" fill="#db3b3b">
         <g transform="translate(-203.03,-103.33)" fill="#db3b3b">
          <flowRoot transform="matrix(.26458 0 0 .26458 -2.875 1.091)" font-family="sans-serif" font-size="40px" letter-spacing="0px" word-spacing="0px" style="line-height:1.25" xml:space="preserve"><flowRegion fill="#db3b3b"><rect x="-85.582" y="-60.812" width="342.33" height="293.65" fill="#db3b3b"/></flowRegion><flowPara/></flowRoot>
          <g transform="translate(-1144.8 309.94)">
           <flowRoot transform="matrix(.26458 0 0 .26458 1036.5 -317.79)" font-family="sans-serif" font-size="40px" letter-spacing="0px" word-spacing="0px" style="line-height:1.25" xml:space="preserve"><flowRegion fill="#db3b3b"><rect x="-105.21" y="-13.703" width="562.17" height="513.49" fill="#db3b3b"/></flowRegion><flowPara/></flowRoot>
           <g transform="translate(-66.134 .039287)">
            <g transform="matrix(.26459 0 0 .26459 1207.6 -308.71)">
             <g transform="matrix(3.7795,0,0,3.7795,10.171,-6.7758)">
              <g transform="translate(-1.0884,-121.69)">
               <g transform="translate(1.6608,-59.209)">
                <g transform="translate(-.6443 -59.335)">
                 <g transform="translate(-1396.8,269.89)">
                  <g transform="translate(-57.972 -.024822)">
                   <g transform="translate(1658.1,73.867)">
                    <g transform="translate(-203.03,-103.33)">
                     <flowRoot transform="matrix(.26458 0 0 .26458 -2.875 1.091)" fill="#000000" font-family="sans-serif" font-size="40px" letter-spacing="0px" word-spacing="0px" style="line-height:1.25" xml:space="preserve"><flowRegion><rect x="-85.582" y="-60.812" width="342.33" height="293.65"/></flowRegion><flowPara/></flowRoot>
                     <g transform="translate(-1039.4,318.88)">
                      <flowRoot transform="matrix(.26458 0 0 .26458 1036.5 -317.79)" fill="#000000" font-family="sans-serif" font-size="40px" letter-spacing="0px" word-spacing="0px" style="line-height:1.25" xml:space="preserve"><flowRegion><rect x="-105.21" y="-13.703" width="562.17" height="513.49"/></flowRegion><flowPara/></flowRoot>
                      <g transform="translate(-66.134 .039287)">
                       <g transform="translate(-66.173 .043409)">
                        <flowRoot transform="matrix(.26458 0 0 .26458 1168.8 -317.87)" fill="#000000" font-family="sans-serif" font-size="40px" letter-spacing="0px" word-spacing="0px" style="line-height:1.25" xml:space="preserve"><flowRegion><rect x="-114.63" y="-91.434" width="675.23" height="522.91"/></flowRegion><flowPara/></flowRoot>
                        <g transform="translate(-66.2 -.040316)">
                         <g transform="translate(-65.918 -.60254)">
                          <g transform="translate(-66.6 .14883)">
                           <flowRoot fill="#000000" font-family="sans-serif" font-size="40px" letter-spacing="0px" word-spacing="0px" style="line-height:1.25" xml:space="preserve"><flowRegion><rect x="-24.34" y="-19.695" width="252.04" height="245.75"/></flowRegion><flowPara/></flowRoot>
                           <g transform="translate(-68.678 -.48293)">
                            <flowRoot fill="#000000" font-family="sans-serif" font-size="40px" letter-spacing="0px" word-spacing="0px" style="line-height:1.25" xml:space="preserve"><flowRegion><rect x="-65.168" y="-26.762" width="382.37" height="335.26"/></flowRegion><flowPara/></flowRoot>
                            <g transform="translate(-63.347 .4912)">
                             <g transform="translate(529.82 -.18087)">
                              <g transform="translate(794.67 .06923)">
                               <g transform="translate(-198.36 .17569)">
                                <g transform="translate(-530.68 .043413)">
                                 <g transform="translate(912.04 -.041317)">
                                  <g transform="translate(132.58 -.39794)">
                                   <g transform="translate(-580.62 .35866)">
                                    <g transform="translate(-264.6 -.1571)">
                                     <g transform="translate(463.55 .097138)">
                                      <g transform="translate(-397.36 .059959)">
                                       <g transform="translate(66.026 -.30592)">
                                        <g transform="translate(-264.69 -.093008)">
                                         <g transform="translate(734.89,179.33)">
                                          <g transform="translate(-205.07,-178.97)">
                                           <g transform="translate(-1081.1,-686.85)">
                                            <flowRoot fill="#000000" font-family="sans-serif" font-size="40px" letter-spacing="0px" word-spacing="0px" style="line-height:1.25" xml:space="preserve"><flowRegion><rect x="21" y="-71" width="223" height="308"/></flowRegion><flowPara/></flowRoot>
                                            <g transform="translate(-112.28 .55746)">
                                             <flowRoot transform="matrix(.26458 0 0 .26458 1500.7 367.6)" fill="#000000" font-family="sans-serif" font-size="40px" letter-spacing="0px" word-spacing="0px" style="line-height:1.25" xml:space="preserve"><flowRegion><rect x="-6.364" y="-2.0107" width="231.22" height="230.87"/></flowRegion><flowPara/></flowRoot>
                                             <g transform="translate(1386.8,133.57)">
                                              <g transform="translate(-1180.5,267.04)">
                                               <rect x="1295.7" y="-31.75" width="52.917" height="52.917" fill="#db3b3b" stroke="#000" stroke-linecap="round" stroke-width=".5" style="paint-order:fill markers stroke"/>
                                               <text class="svgT" x="1322.3284" y="8.8468456" fill="#ffffff" font-family="sans-serif" font-size="5.2px" letter-spacing=".5px" stroke-width=".26458" text-anchor="middle" word-spacing="0px" style="line-height:1.25" xml:space="preserve"><tspan class="iTxt" x="1322.3284" y="8.8468456" text-align="center"/></text>
                                               <g transform="matrix(.32592 0 0 .32571 1306.2 -29.515)" fill="#fff">
                                                <path d="m65.391 67.891 32.892-16.25v-3.281l-32.892-16.25-27.891-14.376v19.766h-37.5v25h37.5v19.766l27.891-14.375" fill="#fff"/>
                                               </g>
                                               <text transform="scale(1.0003 .99968)" x="1312.5194" y="-10.717515" fill="#ff0000" font-family="sans-serif" font-size="7.4756px" letter-spacing="0px" stroke-width=".35042" word-spacing="0px" style="line-height:1.25" xml:space="preserve"><tspan x="1312.5194" y="-10.717515" fill="#ff0000" font-family="sans-serif" stroke-width=".35042">SRAC</tspan></text>
                                              </g>
                                             </g>
                                            </g>
                                           </g>
                                          </g>
                                         </g>
                                        </g>
                                       </g>
                                      </g>
                                     </g>
                                    </g>
                                   </g>
                                  </g>
                                 </g>
                                </g>
                               </g>
                              </g>
                             </g>
                            </g>
                           </g>
                          </g>
                         </g>
                        </g>
                       </g>
                      </g>
                     </g>
                    </g>
                   </g>
                  </g>
                 </g>
                </g>
               </g>
              </g>
             </g>
             <text x="112.31046" y="151.41133" fill="#000000" font-family="sans-serif" font-size="40px" letter-spacing="0px" word-spacing="0px" style="line-height:1.25" xml:space="preserve"><tspan x="112.31046" y="187.90454"/></text>
             <g transform="translate(102.9 44.58)" fill="#f9f9f9">
              <g fill="#f9f9f9">
               <g fill="#f9f9f9">
                <path d="m96.5 67.5-10.7-19.4c-2.3-4.1-7.4-5.6-11.5-3.4-1.1 0.6-1.9 1.4-2.6 2.3v-30.7c0-7.6-6.2-13.8-13.8-13.8h-41c-7.6 0-13.7 6.2-13.7 13.8v40.9c0 7.6 6.1 13.7 13.7 13.7h23.3l3.7 6.7-4.8-1.4c-3.9-1.1-8.2 0.7-10 4.3-1.1 2.2-1.3 4.7-0.4 7s2.6 4.1 4.9 5l12.5 4.8c0.3 0.1 0.7 0.2 1 0.2 1.2 0 2.2-0.7 2.7-1.8 0.6-1.5-0.2-3.1-1.6-3.7l-12.5-4.8c-0.8-0.3-1.3-0.9-1.6-1.7s-0.2-1.6 0.1-2.3c0.6-1.2 2-1.8 3.3-1.4l8.4 2.4c1.6 0.5 3.4-0.1 4.4-1.4 1.1-1.3 1.2-3.1 0.4-4.6l-19.2-35.2c-0.7-1.3-0.2-3 1.1-3.8 0.7-0.4 1.4-0.4 2.1-0.2s1.3 0.7 1.7 1.3l13.2 24.1c0.8 1.4 2.5 1.9 3.9 1.1s1.9-2.5 1.1-3.9l-1.8-3.3c-0.7-1.3-0.2-3 1.1-3.8 0.7-0.4 1.4-0.4 2.1-0.2s1.3 0.7 1.7 1.3l3.4 6.3c0.8 1.4 2.5 1.9 3.9 1.1s1.9-2.5 1.1-3.9l-1.8-3.1c-0.4-0.7-0.4-1.4-0.2-2.1s0.7-1.3 1.3-1.7c1.3-0.7 3-0.2 3.8 1.1l1.6 2.9 1.8 3.3c0.8 1.4 2.5 1.9 3.9 1.1s1.9-2.5 1.1-3.9l-1.7-3c0-0.1-0.1-0.2-0.1-0.3-0.7-1.3-0.2-3 1.1-3.8 1.3-0.7 3-0.2 3.8 1.1l10.7 19.4c0.8 1.4 2.5 1.9 3.9 1.1 1.4-0.6 1.9-2.3 1.2-3.7zm-33.8-20.3c-1.2 0.7-2.2 1.6-3 2.7-0.6-0.4-1.4-0.7-2.1-0.9-2.2-0.6-4.5-0.4-6.5 0.7-0.9 0.5-1.6 1.1-2.2 1.7l-7.6-13.8c-1.1-2-2.9-3.4-5.1-4.1-2.2-0.6-4.5-0.4-6.5 0.7-4.1 2.3-5.6 7.4-3.3 11.5l10.7 19.4h-20.2c-4.4 0-8-3.6-8-8v-40.8c0-4.4 3.6-8 8-8h40.9c4.4 0 8 3.6 8 8v29.9c-1 0.1-2.1 0.4-3.1 1z" fill="#f9f9f9"/>
               </g>
              </g>
             </g>
             <flowRoot transform="translate(2.0683 -5.5027)" fill="#000000" font-family="sans-serif" font-size="40px" letter-spacing="0px" word-spacing="0px" style="line-height:1.25" xml:space="preserve"><flowRegion><rect x="-719.39" y="-8.0469" width="328.31" height="82.883"/></flowRegion><flowPara/></flowRoot>
             <flowRoot fill="black" font-family="sans-serif" font-size="40px" letter-spacing="0px" word-spacing="0px" style="line-height:1.25" xml:space="preserve"><flowRegion><rect x="-757.21" y="21.727" width="159.33" height="62.766"/></flowRegion><flowPara/></flowRoot>
             <flowRoot fill="#ececec" font-family="sans-serif" font-size="40px" letter-spacing="0px" word-spacing="0px" style="line-height:1.25" xml:space="preserve"><flowRegion fill="#ececec"><rect x="-807.1" y="-16.898" width="280.03" height="115.88" fill="#ececec"/></flowRegion><flowPara/></flowRoot>
             <g fill="#000000" font-family="sans-serif" font-size="40px" letter-spacing="0px" word-spacing="0px">
              <text x="75.294853" y="163.39673" style="line-height:1.25" xml:space="preserve"><tspan x="134.21153" y="0"><tspan  class="iTxt" x="75.294853" y="163.39673" fill="#ffffff" font-size="21.333px">SRAC</tspan><tspan x="134.21153" y="163.39673" font-size="21.333px"> </tspan></tspan></text>
              <text x="-848.48639" y="11.395708" style="line-height:1.25" xml:space="preserve"><tspan x="-848.48639" y="47.88892"/><tspan x="-848.48639" y="97.888924"/></text>
              <text x="38.279224" y="187.90456" style="line-height:1.25" xml:space="preserve"><tspan x="38.279224" y="187.90456"><tspan class="iTxt" x="38.279224" y="187.90456" fill="#ffffff" font-size="21.333px">zastosowanie</tspan></tspan></text>
             </g>
             <flowRoot fill="black" font-family="sans-serif" font-size="40px" letter-spacing="0px" word-spacing="0px" style="line-height:1.25" xml:space="preserve"><flowRegion><rect x="20.117" y="137.6" width="159.33" height="53.914"/></flowRegion><flowPara/></flowRoot>
            </g>
           </g>
          </g>
         </g>
        </g>
        <g fill-opacity="0" stroke-width=".80469">
         <path transform="matrix(.26459 0 0 .26459 1451.8 -29.65)" d="m5.6328 104.69v-98.574h197.15v89.723c0 59.279 0.27304 89.723 0.80469 89.723 0.44258 0 0.80469 0.54316 0.80469 1.207s-0.36211 1.207-0.80469 1.207c-0.47999 0-0.80469 3.0846-0.80469 7.6445v7.6445h-197.15z"/>
         <path transform="matrix(.26459 0 0 .26459 1451.8 -29.65)" d="m5.6328 104.69v-98.574h197.15v89.723c0 59.279 0.27304 89.723 0.80469 89.723 0.44258 0 0.80469 0.54316 0.80469 1.207s-0.36211 1.207-0.80469 1.207c-0.47999 0-0.80469 3.0846-0.80469 7.6445v7.6445h-197.15z"/>
         <path transform="matrix(.26459 0 0 .26459 1451.8 -29.65)" d="m5.6328 104.69v-98.574h197.15v89.723c0 59.279 0.27304 89.723 0.80469 89.723 0.44258 0 0.80469 0.54316 0.80469 1.207s-0.36211 1.207-0.80469 1.207c-0.47999 0-0.80469 3.0846-0.80469 7.6445v7.6445h-197.15z"/>
         <path transform="matrix(.26459 0 0 .26459 1451.8 -29.65)" d="m5.6328 104.69v-98.574h197.15v89.723c0 59.279 0.27304 89.723 0.80469 89.723 0.44258 0 0.80469 0.54316 0.80469 1.207s-0.36211 1.207-0.80469 1.207c-0.47999 0-0.80469 3.0846-0.80469 7.6445v7.6445h-197.15z"/>
         <path transform="matrix(.26459 0 0 .26459 1451.8 -29.65)" d="m5.6328 104.69v-98.574h197.15v89.723c0 59.279 0.27304 89.723 0.80469 89.723 0.44258 0 0.80469 0.54316 0.80469 1.207s-0.36211 1.207-0.80469 1.207c-0.47999 0-0.80469 3.0846-0.80469 7.6445v7.6445h-197.15z"/>
         <path transform="matrix(.26459 0 0 .26459 1451.8 -29.65)" d="m5.6328 104.69v-98.574h197.15v89.723c0 59.279 0.27304 89.723 0.80469 89.723 0.44258 0 0.80469 0.54316 0.80469 1.207s-0.36211 1.207-0.80469 1.207c-0.47999 0-0.80469 3.0846-0.80469 7.6445v7.6445h-197.15z"/>
         <path transform="matrix(.26459 0 0 .26459 1451.8 -29.65)" d="m5.6328 104.69v-98.574h197.15v89.723c0 59.279 0.27304 89.723 0.80469 89.723 0.44258 0 0.80469 0.54316 0.80469 1.207s-0.36211 1.207-0.80469 1.207c-0.47999 0-0.80469 3.0846-0.80469 7.6445v7.6445h-197.15z"/>
         <path transform="matrix(.26459 0 0 .26459 1451.8 -29.65)" d="m5.6328 104.69v-98.574h197.15v89.723c0 59.279 0.27304 89.723 0.80469 89.723 0.44258 0 0.80469 0.54316 0.80469 1.207s-0.36211 1.207-0.80469 1.207c-0.47999 0-0.80469 3.0846-0.80469 7.6445v7.6445h-197.15z"/>
         <path transform="matrix(.26459 0 0 .26459 1451.8 -29.65)" d="m5.6328 104.69v-98.574h197.15v89.723c0 59.279 0.27304 89.723 0.80469 89.723 0.44258 0 0.80469 0.54316 0.80469 1.207s-0.36211 1.207-0.80469 1.207c-0.47999 0-0.80469 3.0846-0.80469 7.6445v7.6445h-197.15z"/>
         <path transform="matrix(.26459 0 0 .26459 1451.8 -29.65)" d="m5.6328 104.69v-98.574h197.15v89.723c0 59.279 0.27304 89.723 0.80469 89.723 0.44258 0 0.80469 0.54316 0.80469 1.207s-0.36211 1.207-0.80469 1.207c-0.47999 0-0.80469 3.0846-0.80469 7.6445v7.6445h-197.15z"/>
         <path transform="matrix(.26459 0 0 .26459 1451.8 -29.65)" d="m5.6328 104.69v-98.574h197.15v89.723c0 59.279 0.27304 89.723 0.80469 89.723 0.44258 0 0.80469 0.54316 0.80469 1.207s-0.36211 1.207-0.80469 1.207c-0.47999 0-0.80469 3.0846-0.80469 7.6445v7.6445h-197.15z"/>
         <path transform="matrix(.26459 0 0 .26459 1451.8 -29.65)" d="m5.6328 104.69v-98.574h197.15v89.723c0 59.279 0.27304 89.723 0.80469 89.723 0.44258 0 0.80469 0.54316 0.80469 1.207s-0.36211 1.207-0.80469 1.207c-0.47999 0-0.80469 3.0846-0.80469 7.6445v7.6445h-197.15z"/>
         <path transform="matrix(.26459 0 0 .26459 1451.8 -29.65)" d="m5.6328 104.69v-98.574h197.15v89.723c0 59.279 0.27304 89.723 0.80469 89.723 0.44258 0 0.80469 0.54316 0.80469 1.207s-0.36211 1.207-0.80469 1.207c-0.47999 0-0.80469 3.0846-0.80469 7.6445v7.6445h-197.15z"/>
        </g>
       </g>
      </g>
     </g>
    </g>
   </g>
  </g>
 </g>
</svg>
