<svg id="SVGRoot" width="206px" class="SRACczynnosc" name=="SRAC czynnosc" height="206px" version="1.1" viewBox="0 0 206 206" xmlns="http://www.w3.org/2000/svg">
 <g transform="translate(1.3911 6.8479)">
  <g transform="matrix(3.7795,0,0,3.7795,10.171,-6.7758)">
   <g transform="translate(-1.0884,-121.69)">
    <g transform="translate(1.6608,-59.209)">
     <g transform="translate(-.6443 -59.335)">
      <g transform="translate(-1396.8,269.89)">
       <g transform="translate(-57.972 -.024822)">
        <g transform="translate(1657.6 73.867)" style="fill:#db3b3b">
         <g transform="translate(-203.03,-103.33)" style="fill:#db3b3b">
          <flowRoot transform="matrix(.26458 0 0 .26458 -2.875 1.091)" font-size="40px" letter-spacing="0px" word-spacing="0px" style="fill:#db3b3b;font-family:sans-serif;font-size:40px;letter-spacing:0px;line-height:1.25;word-spacing:0px" xml:space="preserve"><flowRegion style="fill:#db3b3b"><rect x="-85.582" y="-60.812" width="342.33" height="293.65" style="fill:#db3b3b"/></flowRegion><flowPara/></flowRoot>
          <g transform="translate(-1144.8 309.94)" style="fill:#db3b3b">
           <flowRoot transform="matrix(.26458 0 0 .26458 1036.5 -317.79)" font-size="40px" letter-spacing="0px" word-spacing="0px" style="fill:#db3b3b;font-family:sans-serif;font-size:40px;letter-spacing:0px;line-height:1.25;word-spacing:0px" xml:space="preserve"><flowRegion style="fill:#db3b3b"><rect x="-105.21" y="-13.703" width="562.17" height="513.49" style="fill:#db3b3b"/></flowRegion><flowPara/></flowRoot>
           <g transform="translate(-66.134 .039287)" style="fill:#db3b3b">
            <g transform="matrix(.26459 0 0 .26459 1207.6 -308.71)">
             <g transform="matrix(3.7795,0,0,3.7795,10.171,-6.7758)">
              <g transform="translate(-1.0884,-121.69)">
               <g transform="translate(1.6608,-59.209)">
                <g transform="translate(-.6443 -59.335)">
                 <g transform="translate(-1396.8,269.89)">
                  <g transform="translate(-57.972 -.024822)">
                   <g transform="translate(1658.1,73.867)">
                    <g transform="translate(-203.03,-103.33)">
                     <flowRoot transform="matrix(.26458 0 0 .26458 -2.875 1.091)" font-size="40px" letter-spacing="0px" word-spacing="0px" style="fill:#000000;font-family:sans-serif;font-size:40px;letter-spacing:0px;line-height:1.25;word-spacing:0px" xml:space="preserve"><flowRegion><rect x="-85.582" y="-60.812" width="342.33" height="293.65"/></flowRegion><flowPara/></flowRoot>
                     <g transform="translate(-1039.4,318.88)">
                      <flowRoot transform="matrix(.26458 0 0 .26458 1036.5 -317.79)" font-size="40px" letter-spacing="0px" word-spacing="0px" style="fill:#000000;font-family:sans-serif;font-size:40px;letter-spacing:0px;line-height:1.25;word-spacing:0px" xml:space="preserve"><flowRegion><rect x="-105.21" y="-13.703" width="562.17" height="513.49"/></flowRegion><flowPara/></flowRoot>
                      <g transform="translate(-66.134 .039287)">
                       <g transform="translate(-66.173 .043409)">
                        <flowRoot transform="matrix(.26458 0 0 .26458 1168.8 -317.87)" font-size="40px" letter-spacing="0px" word-spacing="0px" style="fill:#000000;font-family:sans-serif;font-size:40px;letter-spacing:0px;line-height:1.25;word-spacing:0px" xml:space="preserve"><flowRegion><rect x="-114.63" y="-91.434" width="675.23" height="522.91"/></flowRegion><flowPara/></flowRoot>
                        <g transform="translate(-66.2 -.040316)">
                         <g transform="translate(-65.918 -.60254)">
                          <g transform="translate(-66.6 .14883)">
                           <flowRoot font-size="40px" letter-spacing="0px" word-spacing="0px" style="fill:#000000;font-family:sans-serif;font-size:40px;letter-spacing:0px;line-height:1.25;word-spacing:0px" xml:space="preserve"><flowRegion><rect x="-24.34" y="-19.695" width="252.04" height="245.75"/></flowRegion><flowPara/></flowRoot>
                           <g transform="translate(-68.678 -.48293)">
                            <flowRoot font-size="40px" letter-spacing="0px" word-spacing="0px" style="fill:#000000;font-family:sans-serif;font-size:40px;letter-spacing:0px;line-height:1.25;word-spacing:0px" xml:space="preserve"><flowRegion><rect x="-65.168" y="-26.762" width="382.37" height="335.26"/></flowRegion><flowPara/></flowRoot>
                            <g transform="translate(-63.347 .4912)">
                             <g transform="translate(529.82 -.18087)">
                              <g transform="translate(794.67 .06923)">
                               <g transform="translate(-198.36 .17569)">
                                <g transform="translate(-530.68 .043413)">
                                 <g transform="translate(912.04 -.041317)">
                                  <g transform="translate(132.58 -.39794)">
                                   <g transform="translate(-580.62 .35866)">
                                    <g transform="translate(-264.6 -.1571)">
                                     <g transform="translate(463.55 .097138)">
                                      <g transform="translate(-397.36 .059959)">
                                       <g transform="translate(66.026 -.30592)">
                                        <g transform="translate(-264.69 -.093008)">
                                         <g transform="translate(734.89,179.33)">
                                          <g transform="translate(-205.07,-178.97)">
                                           <g transform="translate(-1081.1,-686.85)">
                                            <flowRoot font-size="40px" letter-spacing="0px" word-spacing="0px" style="fill:#000000;font-family:sans-serif;font-size:40px;letter-spacing:0px;line-height:1.25;word-spacing:0px" xml:space="preserve"><flowRegion><rect x="21" y="-71" width="223" height="308"/></flowRegion><flowPara/></flowRoot>
                                            <g transform="translate(-112.28 .55746)">
                                             <flowRoot transform="matrix(.26458 0 0 .26458 1500.7 367.6)" font-size="40px" letter-spacing="0px" word-spacing="0px" style="fill:#000000;font-family:sans-serif;font-size:40px;letter-spacing:0px;line-height:1.25;word-spacing:0px" xml:space="preserve"><flowRegion><rect x="-6.364" y="-2.0107" width="231.22" height="230.87"/></flowRegion><flowPara/></flowRoot>
                                             <g transform="translate(1386.8,133.57)">
                                              <g transform="translate(-1180.5,267.04)">
                                               <rect x="1295.7" y="-31.75" width="52.917" height="52.917" style="fill:#db3b3b;paint-order:fill markers stroke;stroke-linecap:round;stroke-width:.5;stroke:#000"/>
                                               <text class="svgT" x="1322.3284" y="8.8468456" font-size="5.2px" letter-spacing=".5px" word-spacing="0px" style="fill:#ffffff;font-family:sans-serif;font-size:5.2px;letter-spacing:.5px;line-height:1.25;stroke-width:.26458;text-anchor:middle;word-spacing:0px" xml:space="preserve"><tspan class="iTxt" x="1322.3284" y="8.8468456" text-align="center" style="text-align:center"/></text>
                                               <g transform="matrix(.32592 0 0 .32571 1306.2 -29.515)" style="fill:#fff">
                                                <path d="m65.391 67.891 32.892-16.25v-3.281l-32.892-16.25-27.891-14.376v19.766h-37.5v25h37.5v19.766l27.891-14.375" style="fill:#fff"/>
                                               </g>
                                               <text transform="scale(1.0003 .99968)" x="1312.5194" y="-10.717515" font-size="7.4756px" letter-spacing="0px" word-spacing="0px" style="fill:#ff0000;font-family:sans-serif;font-size:7.4756px;letter-spacing:0px;line-height:1.25;stroke-width:.35042;word-spacing:0px" xml:space="preserve"><tspan x="1312.5194" y="-10.717515" style="fill:#ff0000;font-family:sans-serif;stroke-width:.35042">SRAC</tspan></text>
                                              </g>
                                             </g>
                                            </g>
                                           </g>
                                          </g>
                                         </g>
                                        </g>
                                       </g>
                                      </g>
                                     </g>
                                    </g>
                                   </g>
                                  </g>
                                 </g>
                                </g>
                               </g>
                              </g>
                             </g>
                            </g>
                           </g>
                          </g>
                         </g>
                        </g>
                       </g>
                      </g>
                     </g>
                    </g>
                   </g>
                  </g>
                 </g>
                </g>
               </g>
              </g>
             </g>
             <text x="112.31046" y="151.41133" style="fill:#000000;font-family:sans-serif;font-size:40px;letter-spacing:0px;line-height:1.25;word-spacing:0px" xml:space="preserve"><tspan x="112.31046" y="187.90454"/></text>
             <flowRoot transform="translate(2.0683 -5.5027)" style="fill:#000000;font-family:sans-serif;font-size:40px;letter-spacing:0px;line-height:1.25;word-spacing:0px" xml:space="preserve"><flowRegion><rect x="-719.39" y="-8.0469" width="328.31" height="82.883"/></flowRegion><flowPara/></flowRoot>
             <flowRoot style="fill:black;font-family:sans-serif;font-size:40px;letter-spacing:0px;line-height:1.25;word-spacing:0px" xml:space="preserve"><flowRegion><rect x="-757.21" y="21.727" width="159.33" height="62.766"/></flowRegion><flowPara/></flowRoot>
             <flowRoot style="fill:#ececec;font-family:sans-serif;font-size:40px;letter-spacing:0px;line-height:1.25;word-spacing:0px" xml:space="preserve"><flowRegion style="fill:#ececec"><rect x="-807.1" y="-16.898" width="280.03" height="115.88" style="fill:#ececec"/></flowRegion><flowPara/></flowRoot>
             <text x="75.294853" y="163.39673" style="fill:#000000;font-family:sans-serif;font-size:40px;letter-spacing:0px;line-height:1.25;word-spacing:0px" xml:space="preserve"><tspan x="134.21153" y="0"><tspan class="iTxt" x="75.294853" y="163.39673" style="fill:#ffffff;font-size:21.333px">SRAC</tspan><tspan x="134.21153" y="163.39673" style="font-size:21.333px"> </tspan></tspan></text>
             <text x="-848.48639" y="11.395708" style="fill:#000000;font-family:sans-serif;font-size:40px;letter-spacing:0px;line-height:1.25;word-spacing:0px" xml:space="preserve"><tspan x="-848.48639" y="47.88892"/><tspan x="-848.48639" y="97.888924"/></text>
             <text x="58.279224" y="187.90456" style="fill:#ffffff;font-family:sans-serif;font-size:40px;letter-spacing:0px;line-height:1.25;word-spacing:0px" xml:space="preserve"><tspan class="iTxt" x="58.279224" y="187.90456" style="font-size:21.333px">czynność</tspan></text>
             <flowRoot style="fill:black;font-family:sans-serif;font-size:40px;letter-spacing:0px;line-height:1.25;word-spacing:0px" xml:space="preserve"><flowRegion><rect x="20.117" y="137.6" width="159.33" height="53.914"/></flowRegion><flowPara/></flowRoot>
             <g transform="matrix(1.7482 0 0 1.9899 29.459 18.321)" style="fill:#fff">
              <path d="m88 46.738h-5.904c-0.282 0-0.552 0.119-0.74 0.327l-9.372 10.339-9.501-21.537c-0.16-0.363-0.526-0.597-0.934-0.597-0.398 6e-3 -0.757 0.251-0.907 0.625l-7.446 18.371-5.908-9.634c-0.183-0.299-0.499-0.472-0.869-0.477-0.328 0.017-0.646 0.186-0.823 0.452l-9.536 14.568-10.805-18.154c-0.147-0.247-0.394-0.42-0.677-0.473-0.288-0.054-0.578 0.021-0.799 0.196l-9.719 7.661h-6.06c-0.552 0-1 0.448-1 1s0.448 1 1 1h5.887c0.553 0 1.104-0.191 1.552-0.539l8.682-6.844 9.813 16.487c0.444 0.747 1.247 1.203 2.147 1.22 0.853 0 1.634-0.422 2.09-1.128l8.233-12.579 4.576 7.459c0.475 0.756 1.429 1.251 2.328 1.16 0.938-0.081 1.745-0.677 2.109-1.555l6.188-15.251 8.24 18.676c0.339 0.764 1.033 1.314 1.811 1.436 0.125 0.025 0.375 0.048 0.479 0.048 0.7 0 1.372-0.3 1.844-0.821l8.562-9.437h5.459c0.552 0 1-0.448 1-1 0-0.55-0.448-0.999-1-0.999z" style="fill:#fff"/>
             </g>
            </g>
           </g>
          </g>
         </g>
        </g>
        <path transform="matrix(.26459 0 0 .26459 1451.8 -29.65)" d="m5.6328 104.69v-98.574h197.15v89.723c0 59.279 0.27304 89.723 0.80469 89.723 0.44258 0 0.80469 0.54316 0.80469 1.207s-0.36211 1.207-0.80469 1.207c-0.47999 0-0.80469 3.0846-0.80469 7.6445v7.6445h-197.15z" style="fill-opacity:0;stroke-width:.80469"/>
        <path transform="matrix(.26459 0 0 .26459 1451.8 -29.65)" d="m5.6328 104.69v-98.574h197.15v89.723c0 59.279 0.27304 89.723 0.80469 89.723 0.44258 0 0.80469 0.54316 0.80469 1.207s-0.36211 1.207-0.80469 1.207c-0.47999 0-0.80469 3.0846-0.80469 7.6445v7.6445h-197.15z" style="fill-opacity:0;stroke-width:.80469"/>
        <path transform="matrix(.26459 0 0 .26459 1451.8 -29.65)" d="m5.6328 104.69v-98.574h197.15v89.723c0 59.279 0.27304 89.723 0.80469 89.723 0.44258 0 0.80469 0.54316 0.80469 1.207s-0.36211 1.207-0.80469 1.207c-0.47999 0-0.80469 3.0846-0.80469 7.6445v7.6445h-197.15z" style="fill-opacity:0;stroke-width:.80469"/>
        <path transform="matrix(.26459 0 0 .26459 1451.8 -29.65)" d="m5.6328 104.69v-98.574h197.15v89.723c0 59.279 0.27304 89.723 0.80469 89.723 0.44258 0 0.80469 0.54316 0.80469 1.207s-0.36211 1.207-0.80469 1.207c-0.47999 0-0.80469 3.0846-0.80469 7.6445v7.6445h-197.15z" style="fill-opacity:0;stroke-width:.80469"/>
        <path transform="matrix(.26459 0 0 .26459 1451.8 -29.65)" d="m5.6328 104.69v-98.574h197.15v89.723c0 59.279 0.27304 89.723 0.80469 89.723 0.44258 0 0.80469 0.54316 0.80469 1.207s-0.36211 1.207-0.80469 1.207c-0.47999 0-0.80469 3.0846-0.80469 7.6445v7.6445h-197.15z" style="fill-opacity:0;stroke-width:.80469"/>
        <path transform="matrix(.26459 0 0 .26459 1451.8 -29.65)" d="m5.6328 104.69v-98.574h197.15v89.723c0 59.279 0.27304 89.723 0.80469 89.723 0.44258 0 0.80469 0.54316 0.80469 1.207s-0.36211 1.207-0.80469 1.207c-0.47999 0-0.80469 3.0846-0.80469 7.6445v7.6445h-197.15z" style="fill-opacity:0;stroke-width:.80469"/>
        <path transform="matrix(.26459 0 0 .26459 1451.8 -29.65)" d="m5.6328 104.69v-98.574h197.15v89.723c0 59.279 0.27304 89.723 0.80469 89.723 0.44258 0 0.80469 0.54316 0.80469 1.207s-0.36211 1.207-0.80469 1.207c-0.47999 0-0.80469 3.0846-0.80469 7.6445v7.6445h-197.15z" style="fill-opacity:0;stroke-width:.80469"/>
        <path transform="matrix(.26459 0 0 .26459 1451.8 -29.65)" d="m5.6328 104.69v-98.574h197.15v89.723c0 59.279 0.27304 89.723 0.80469 89.723 0.44258 0 0.80469 0.54316 0.80469 1.207s-0.36211 1.207-0.80469 1.207c-0.47999 0-0.80469 3.0846-0.80469 7.6445v7.6445h-197.15z" style="fill-opacity:0;stroke-width:.80469"/>
        <path transform="matrix(.26459 0 0 .26459 1451.8 -29.65)" d="m5.6328 104.69v-98.574h197.15v89.723c0 59.279 0.27304 89.723 0.80469 89.723 0.44258 0 0.80469 0.54316 0.80469 1.207s-0.36211 1.207-0.80469 1.207c-0.47999 0-0.80469 3.0846-0.80469 7.6445v7.6445h-197.15z" style="fill-opacity:0;stroke-width:.80469"/>
        <path transform="matrix(.26459 0 0 .26459 1451.8 -29.65)" d="m5.6328 104.69v-98.574h197.15v89.723c0 59.279 0.27304 89.723 0.80469 89.723 0.44258 0 0.80469 0.54316 0.80469 1.207s-0.36211 1.207-0.80469 1.207c-0.47999 0-0.80469 3.0846-0.80469 7.6445v7.6445h-197.15z" style="fill-opacity:0;stroke-width:.80469"/>
        <path transform="matrix(.26459 0 0 .26459 1451.8 -29.65)" d="m5.6328 104.69v-98.574h197.15v89.723c0 59.279 0.27304 89.723 0.80469 89.723 0.44258 0 0.80469 0.54316 0.80469 1.207s-0.36211 1.207-0.80469 1.207c-0.47999 0-0.80469 3.0846-0.80469 7.6445v7.6445h-197.15z" style="fill-opacity:0;stroke-width:.80469"/>
        <path transform="matrix(.26459 0 0 .26459 1451.8 -29.65)" d="m5.6328 104.69v-98.574h197.15v89.723c0 59.279 0.27304 89.723 0.80469 89.723 0.44258 0 0.80469 0.54316 0.80469 1.207s-0.36211 1.207-0.80469 1.207c-0.47999 0-0.80469 3.0846-0.80469 7.6445v7.6445h-197.15z" style="fill-opacity:0;stroke-width:.80469"/>
        <path transform="matrix(.26459 0 0 .26459 1451.8 -29.65)" d="m5.6328 104.69v-98.574h197.15v89.723c0 59.279 0.27304 89.723 0.80469 89.723 0.44258 0 0.80469 0.54316 0.80469 1.207s-0.36211 1.207-0.80469 1.207c-0.47999 0-0.80469 3.0846-0.80469 7.6445v7.6445h-197.15z" style="fill-opacity:0;stroke-width:.80469"/>
       </g>
      </g>
     </g>
    </g>
   </g>
  </g>
 </g>
</svg>
