<svg id="SVGRoot" class="StronaGlowna" name="Strona glowna" width="205px" height="205px" version="1.1" viewBox="0 0 205 205" xmlns="http://www.w3.org/2000/svg">
 <g>
  <rect x="3.6797" y="4.0977" width="200" height="200" fill="#0082b4" stroke="#000" stroke-linecap="round" stroke-width="1.8898" style="paint-order:fill markers stroke"/>
  <text x="102.68917" y="162.99924" fill="#ffffff" font-family="sans-serif" font-size="21.333px" letter-spacing="0px" text-anchor="middle" word-spacing="0px" style="line-height:1.25" xml:space="preserve"><tspan class="iTxt" x="102.68917" y="162.99924" text-align="center">STRONA</tspan><tspan class="iTxt"  x="102.68917" y="199.66589" text-align="center"> GŁÓWNA</tspan></text>
  <g transform="matrix(7.1415 0 0 7.1415 18.592 -5.3742)" fill="#fff">
   <g fill="#fff">
    <path d="m6.934 12.202c-0.341 0-0.62 0.271-0.62 0.612v6.025c0 0.341 0.28 0.616 0.62 0.616h10.145c0.34 0 0.611-0.275 0.611-0.616v-6.025c0-0.341-0.271-0.612-0.611-0.612-0.341 0-0.621 0.271-0.621 0.612v5.409h-8.913v-5.409c0-0.341-0.279-0.612-0.611-0.612z"/>
    <path d="m4.181 12.98c0.236 0.236 0.63 0.236 0.865 0l6.951-6.946 6.96 6.946c0.236 0.236 0.629 0.236 0.865 0 0.24-0.236 0.24-0.629 0-0.865l-7.374-7.383-0.013-9e-3c-0.24-0.236-0.63-0.236-0.87 0l-7.383 7.392c-0.245 0.236-0.245 0.629-1e-3 0.865z"/>
   </g>
  </g>
 </g>
</svg>
