<svg id="SVGRoot" width="205px" height="205px" version="1.1" viewBox="0 0 205 205" xmlns="http://www.w3.org/2000/svg">
 <rect x="4.0977" y="4.1016" width="200" height="200" style="fill:#db3b3b;paint-order:fill markers stroke;stroke-linecap:round;stroke-width:1.8898;stroke:#000"/>
 <g transform="matrix(.21193 0 0 .16344 57.053 27.026)" style="fill:#fff">
  <path d="m184.3 512c-4.1992 0-8.2773-1.6445-11.305-4.6914-3.9258-3.9258-5.5274-9.582-4.2656-14.977l23.254-98.668c0.67969-2.9023 2.1523-5.5469 4.2656-7.6367l203.65-203.65c18.109-18.133 49.75-18.156 67.883 0l30.164 30.164c9.0664 9.0469 14.059 21.121 14.059 33.922 0 12.82-4.9922 24.895-14.059 33.941l-203.65 203.62c-2.1133 2.1133-4.7578 3.5859-7.6367 4.2656l-98.668 23.254c-1.2344 0.32031-2.4727 0.44922-3.6914 0.44922zm37.781-106.58-16.277 69.078 69.078-16.277 200.43-200.43c3.0274-3.0312 4.6914-7.0391 4.6914-11.309 0-4.2656-1.6641-8.2969-4.6914-11.305l-30.168-30.168c-6.25-6.2266-16.383-6.25-22.633 0zm60.91 67.328h0.21094z" style="fill:#fff"/>
  <path d="m433.84 337.9c-4.0977 0-8.1914-1.5586-11.309-4.6914l-75.434-75.438c-6.25-6.25-6.25-16.383 0-22.633s16.383-6.25 22.633 0l75.438 75.434c6.25 6.25 6.25 16.383 0 22.637-3.1367 3.1328-7.2344 4.6914-11.328 4.6914z" style="fill:#fff"/>
  <path d="m145.92 448h-97.922c-26.477 0-48-21.523-48-48v-352c0-26.477 21.523-48 48-48h309.33c26.477 0 48 21.523 48 48v98.773c0 8.832-7.168 16-16 16s-16-7.168-16-16v-98.773c0-8.832-7.168-16-16-16h-309.33c-8.832 0-16 7.168-16 16v352c0 8.832 7.168 16 16 16h97.922c8.832 0 16 7.168 16 16s-7.168 16-16 16z" style="fill:#fff"/>
  <path d="m389.33 138.67h-373.33c-8.832 0-16-7.168-16-16s7.168-16 16-16h373.33c8.832 0 16 7.168 16 16s-7.168 16-16 16z" style="fill:#fff"/>
  <path d="m310.83 245.33h-294.83c-8.832 0-16-7.168-16-16s7.168-16 16-16h294.83c8.832 0 16 7.168 16 16s-7.168 16-16 16z" style="fill:#fff"/>
  <path d="m202.67 352h-186.67c-8.832 0-16-7.168-16-16s7.168-16 16-16h186.67c8.832 0 16 7.168 16 16s-7.168 16-16 16z" style="fill:#fff"/>
  <path d="m202.67 352c-8.832 0-16-7.168-16-16v-213.33c0-8.832 7.168-16 16-16s16 7.168 16 16v213.33c0 8.832-7.168 16-16 16z" style="fill:#fff"/>
 </g>
 <text x="36.835938" y="185.43852" style="fill:#000000;font-family:sans-serif;font-size:40px;letter-spacing:0px;line-height:1.25;word-spacing:0px" xml:space="preserve"><tspan x="36.835938" y="185.43852"><tspan x="36.835938" y="185.43852" style="fill:#ffffff;font-size:21.333px">Podpis tabeli</tspan></tspan></text>
 <g transform="matrix(.77686 0 0 .71253 6.6435 82.408)">
  <g transform="matrix(.82945 0 0 .62759 11.339 10.145)" style="fill:#0ff">
   <path d="m114.82 83.667c5e-3 -3e-3 0.011-5e-3 0.016-8e-3l-0.242-0.438-0.174-0.469c-2.889 1.074-5.479 1.014-7.918-0.184-7.797-3.829-12.357-18.479-16.769-32.646-4.267-13.702-8.295-26.646-15.083-28.488-2.775-0.755-5.739 0.351-9.064 3.382-4.777 4.55-9.23 14.32-13.539 23.769-5.142 11.281-10.459 22.945-15.573 23.427-3.446 0.344-6.995-4.27-10.74-9.134-6.261-8.13-14.054-18.248-25.66-10.945l0.229 0.365c-0.084 0.058-0.167 0.105-0.251 0.165l0.24 0.339c-0.087 0.066-0.173 0.121-0.26 0.189l0.249 0.316c-0.089 0.074-0.178 0.136-0.267 0.213l0.254 0.293c-0.09 0.082-0.18 0.15-0.27 0.235l0.686 0.729c2.635-2.484 5.091-3.456 7.498-2.976 6.335 1.265 11.459 12.705 15.979 22.798 4.567 10.196 8.524 19.032 13.547 19.032 0.11 0 0.221-4e-3 0.333-0.013 7.147-0.553 9.792-10.111 12.855-21.179 2.173-7.854 4.636-16.753 9.091-23.108 3.963-5.409 7.5-7.907 10.817-7.629 5.937 0.494 10.636 9.831 15.611 19.717 5.268 10.469 10.717 21.292 18.522 23.691 3.108 0.956 6.427 0.473 9.86-1.432 2e-3 0 4e-3 -1e-3 6e-3 -2e-3 6e-3 -3e-3 0.012-5e-3 0.017-9e-3zm-90.291-14.476c4.388 7.786 8.159 14.507 12.775 14.122 6.434-0.546 10.442-11.369 14.686-22.826 3.227-8.712 6.564-17.721 11.146-23.053 3.447-4.012 6.49-5.736 9.291-5.266 6.006 1.004 10.359 11.948 14.968 23.534 2.541 6.386 5.128 12.874 8.129 18.122-2.808-4.604-5.325-10.21-7.8-15.729-4.921-10.982-9.572-21.355-16.068-22.145-3.406-0.418-6.973 1.813-10.88 6.815-4.667 5.972-7.538 14.824-10.313 23.385-3.473 10.709-6.752 20.825-12.871 21.32-4.2 0.358-8.168-7.59-12.355-15.985-1.759-3.528-3.542-7.097-5.426-10.274 1.656 2.557 3.221 5.326 4.718 7.98zm-6.25-11.914c2.314 2.75 4.445 6.018 6.449 9.103 4.243 6.528 7.916 12.162 12.208 11.781 6.056-0.541 10.657-11.662 15.528-23.435 3.739-9.035 7.604-18.378 12.241-23.236 3.227-3.38 6.053-4.754 8.648-4.196 6.096 1.309 10.256 13.104 14.66 25.591 2.211 6.268 4.457 12.633 7.051 18.011-2.417-4.699-4.596-10.17-6.74-15.563-4.715-11.855-9.169-23.053-15.73-24.15-3.176-0.529-6.521 1.3-10.217 5.601-4.699 5.467-8.067 14.562-11.325 23.357-4.13 11.15-8.032 21.685-13.833 22.177-3.943 0.333-7.774-6.441-11.819-13.616-2.195-3.894-4.534-8.035-7.121-11.425zm6.663 6.212c4.088 5.309 7.611 9.898 11.626 9.52 5.69-0.536 10.887-11.937 16.389-24.006 4.268-9.362 8.681-19.042 13.31-23.452 3.044-2.775 5.701-3.804 8.121-3.149 6.258 1.698 10.207 14.387 14.391 27.822 2.001 6.428 4.034 12.95 6.4 18.56-2.241-4.952-4.246-10.63-6.223-16.231-4.501-12.759-8.752-24.81-15.395-26.236-2.961-0.635-6.096 0.831-9.581 4.484-4.767 4.993-8.668 14.424-12.441 23.544-4.752 11.484-9.241 22.333-14.693 22.819-3.694 0.341-7.383-5.333-11.281-11.331-2.567-3.948-5.333-8.194-8.471-11.336 2.849 2.505 5.412 5.828 7.848 8.992zm45.945-22.783c-3.684-0.308-7.521 2.321-11.713 8.043-4.56 6.504-7.046 15.493-9.242 23.424-2.962 10.705-5.521 19.95-11.968 20.448-4.478 0.347-8.564-8.773-12.89-18.432-1.322-2.952-2.657-5.93-4.038-8.73 1.141 2.136 2.241 4.336 3.305 6.472 4.421 8.864 8.252 16.551 12.978 16.55 0.117 0 0.235-5e-3 0.354-0.015 6.783-0.549 10.008-10.493 13.741-22.009 2.749-8.478 5.592-17.245 10.15-23.077 3.674-4.702 6.941-6.806 9.972-6.438 5.935 0.722 10.474 10.844 15.277 21.561 2.743 6.119 5.538 12.334 8.753 17.243-2.96-4.259-5.633-9.56-8.258-14.775-5.105-10.144-9.927-19.725-16.421-20.265z" style="fill:#0ff"/>
  </g>
 </g>
</svg>
